<mxfile host="app.diagrams.net" modified="2024-05-23T12:03:20.569Z" agent="Mozilla/5.0 (Windows NT 10.0; Win64; x64) AppleWebKit/537.36 (KHTML, like Gecko) Chrome/121.0.0.0 Safari/537.36" etag="DTc3YFflUGl0vGZ8mc2z" version="24.4.6" type="device">
  <diagram name="Página-1" id="hyWOLQbilvEVhhYELT24">
    <mxGraphModel dx="2261" dy="782" grid="1" gridSize="10" guides="1" tooltips="1" connect="1" arrows="1" fold="1" page="1" pageScale="1" pageWidth="827" pageHeight="1169" math="0" shadow="0">
      <root>
        <mxCell id="0" />
        <mxCell id="1" parent="0" />
        <mxCell id="cRnX71DRwEm9QalAC-Hg-64" value="" style="edgeStyle=orthogonalEdgeStyle;rounded=0;orthogonalLoop=1;jettySize=auto;html=1;" edge="1" parent="1" source="cRnX71DRwEm9QalAC-Hg-1" target="cRnX71DRwEm9QalAC-Hg-35">
          <mxGeometry relative="1" as="geometry" />
        </mxCell>
        <mxCell id="cRnX71DRwEm9QalAC-Hg-1" value="Início" style="ellipse;whiteSpace=wrap;html=1;" vertex="1" parent="1">
          <mxGeometry y="70" width="120" height="80" as="geometry" />
        </mxCell>
        <mxCell id="cRnX71DRwEm9QalAC-Hg-56" value="" style="edgeStyle=orthogonalEdgeStyle;rounded=0;orthogonalLoop=1;jettySize=auto;html=1;" edge="1" parent="1" source="cRnX71DRwEm9QalAC-Hg-10" target="cRnX71DRwEm9QalAC-Hg-12">
          <mxGeometry relative="1" as="geometry" />
        </mxCell>
        <mxCell id="cRnX71DRwEm9QalAC-Hg-57" value="Sim" style="edgeLabel;html=1;align=center;verticalAlign=middle;resizable=0;points=[];" vertex="1" connectable="0" parent="cRnX71DRwEm9QalAC-Hg-56">
          <mxGeometry x="0.1333" relative="1" as="geometry">
            <mxPoint x="11" as="offset" />
          </mxGeometry>
        </mxCell>
        <mxCell id="cRnX71DRwEm9QalAC-Hg-62" style="edgeStyle=orthogonalEdgeStyle;rounded=0;orthogonalLoop=1;jettySize=auto;html=1;entryX=0.5;entryY=0;entryDx=0;entryDy=0;" edge="1" parent="1" source="cRnX71DRwEm9QalAC-Hg-10" target="cRnX71DRwEm9QalAC-Hg-18">
          <mxGeometry relative="1" as="geometry">
            <Array as="points">
              <mxPoint x="570" y="60" />
              <mxPoint x="430" y="60" />
            </Array>
          </mxGeometry>
        </mxCell>
        <mxCell id="cRnX71DRwEm9QalAC-Hg-63" value="Não" style="edgeLabel;html=1;align=center;verticalAlign=middle;resizable=0;points=[];" vertex="1" connectable="0" parent="cRnX71DRwEm9QalAC-Hg-62">
          <mxGeometry x="-0.0824" relative="1" as="geometry">
            <mxPoint as="offset" />
          </mxGeometry>
        </mxCell>
        <mxCell id="cRnX71DRwEm9QalAC-Hg-10" value="Dados Corretos" style="rhombus;whiteSpace=wrap;html=1;" vertex="1" parent="1">
          <mxGeometry x="530" y="70" width="80" height="80" as="geometry" />
        </mxCell>
        <mxCell id="cRnX71DRwEm9QalAC-Hg-25" value="" style="edgeStyle=orthogonalEdgeStyle;rounded=0;orthogonalLoop=1;jettySize=auto;html=1;" edge="1" parent="1" source="cRnX71DRwEm9QalAC-Hg-12" target="cRnX71DRwEm9QalAC-Hg-24">
          <mxGeometry relative="1" as="geometry" />
        </mxCell>
        <mxCell id="cRnX71DRwEm9QalAC-Hg-12" value="Cadastrar" style="whiteSpace=wrap;html=1;" vertex="1" parent="1">
          <mxGeometry x="510" y="220" width="120" height="60" as="geometry" />
        </mxCell>
        <mxCell id="cRnX71DRwEm9QalAC-Hg-61" value="" style="edgeStyle=orthogonalEdgeStyle;rounded=0;orthogonalLoop=1;jettySize=auto;html=1;" edge="1" parent="1" source="cRnX71DRwEm9QalAC-Hg-18" target="cRnX71DRwEm9QalAC-Hg-10">
          <mxGeometry relative="1" as="geometry" />
        </mxCell>
        <mxCell id="cRnX71DRwEm9QalAC-Hg-18" value="Adicionar Dados do Cliente, Nome, Endereço, Telefone" style="whiteSpace=wrap;html=1;" vertex="1" parent="1">
          <mxGeometry x="370" y="80" width="120" height="60" as="geometry" />
        </mxCell>
        <mxCell id="cRnX71DRwEm9QalAC-Hg-83" style="edgeStyle=orthogonalEdgeStyle;rounded=0;orthogonalLoop=1;jettySize=auto;html=1;entryX=0;entryY=0.5;entryDx=0;entryDy=0;" edge="1" parent="1" source="cRnX71DRwEm9QalAC-Hg-24" target="cRnX71DRwEm9QalAC-Hg-71">
          <mxGeometry relative="1" as="geometry">
            <Array as="points">
              <mxPoint x="370" y="290" />
              <mxPoint x="690" y="290" />
              <mxPoint x="690" y="610" />
              <mxPoint x="-130" y="610" />
              <mxPoint x="-130" y="250" />
            </Array>
          </mxGeometry>
        </mxCell>
        <mxCell id="cRnX71DRwEm9QalAC-Hg-24" value="Cadastro Realizado" style="whiteSpace=wrap;html=1;" vertex="1" parent="1">
          <mxGeometry x="310" y="220" width="120" height="60" as="geometry" />
        </mxCell>
        <mxCell id="cRnX71DRwEm9QalAC-Hg-32" value="" style="edgeStyle=orthogonalEdgeStyle;rounded=0;orthogonalLoop=1;jettySize=auto;html=1;" edge="1" parent="1" source="cRnX71DRwEm9QalAC-Hg-30" target="cRnX71DRwEm9QalAC-Hg-31">
          <mxGeometry relative="1" as="geometry" />
        </mxCell>
        <mxCell id="cRnX71DRwEm9QalAC-Hg-30" value="Início" style="ellipse;whiteSpace=wrap;html=1;" vertex="1" parent="1">
          <mxGeometry x="40" y="1050" width="120" height="80" as="geometry" />
        </mxCell>
        <mxCell id="cRnX71DRwEm9QalAC-Hg-34" value="" style="edgeStyle=orthogonalEdgeStyle;rounded=0;orthogonalLoop=1;jettySize=auto;html=1;" edge="1" parent="1" source="cRnX71DRwEm9QalAC-Hg-31" target="cRnX71DRwEm9QalAC-Hg-33">
          <mxGeometry relative="1" as="geometry" />
        </mxCell>
        <mxCell id="cRnX71DRwEm9QalAC-Hg-31" value="Fornecedores" style="whiteSpace=wrap;html=1;" vertex="1" parent="1">
          <mxGeometry x="240" y="1060" width="120" height="60" as="geometry" />
        </mxCell>
        <mxCell id="cRnX71DRwEm9QalAC-Hg-33" value="Cadastrar&amp;nbsp;" style="whiteSpace=wrap;html=1;" vertex="1" parent="1">
          <mxGeometry x="440" y="1060" width="120" height="60" as="geometry" />
        </mxCell>
        <mxCell id="cRnX71DRwEm9QalAC-Hg-49" value="" style="edgeStyle=orthogonalEdgeStyle;rounded=0;orthogonalLoop=1;jettySize=auto;html=1;" edge="1" parent="1" target="cRnX71DRwEm9QalAC-Hg-18">
          <mxGeometry relative="1" as="geometry">
            <mxPoint x="280" y="110" as="sourcePoint" />
          </mxGeometry>
        </mxCell>
        <mxCell id="cRnX71DRwEm9QalAC-Hg-50" value="Não" style="edgeLabel;html=1;align=center;verticalAlign=middle;resizable=0;points=[];" vertex="1" connectable="0" parent="cRnX71DRwEm9QalAC-Hg-49">
          <mxGeometry x="-0.1556" relative="1" as="geometry">
            <mxPoint as="offset" />
          </mxGeometry>
        </mxCell>
        <mxCell id="cRnX71DRwEm9QalAC-Hg-66" value="" style="edgeStyle=orthogonalEdgeStyle;rounded=0;orthogonalLoop=1;jettySize=auto;html=1;" edge="1" parent="1" source="cRnX71DRwEm9QalAC-Hg-35" target="cRnX71DRwEm9QalAC-Hg-65">
          <mxGeometry relative="1" as="geometry">
            <Array as="points">
              <mxPoint x="250" y="250" />
            </Array>
          </mxGeometry>
        </mxCell>
        <mxCell id="cRnX71DRwEm9QalAC-Hg-78" value="Sim" style="edgeLabel;html=1;align=center;verticalAlign=middle;resizable=0;points=[];" vertex="1" connectable="0" parent="cRnX71DRwEm9QalAC-Hg-66">
          <mxGeometry x="-0.3067" y="-1" relative="1" as="geometry">
            <mxPoint as="offset" />
          </mxGeometry>
        </mxCell>
        <mxCell id="cRnX71DRwEm9QalAC-Hg-35" value="Cliente Cadastrado" style="rhombus;whiteSpace=wrap;html=1;" vertex="1" parent="1">
          <mxGeometry x="210" y="70" width="80" height="80" as="geometry" />
        </mxCell>
        <mxCell id="cRnX71DRwEm9QalAC-Hg-68" value="" style="edgeStyle=orthogonalEdgeStyle;rounded=0;orthogonalLoop=1;jettySize=auto;html=1;" edge="1" parent="1" source="cRnX71DRwEm9QalAC-Hg-65" target="cRnX71DRwEm9QalAC-Hg-67">
          <mxGeometry relative="1" as="geometry" />
        </mxCell>
        <mxCell id="cRnX71DRwEm9QalAC-Hg-65" value="Procurar Cliente" style="whiteSpace=wrap;html=1;" vertex="1" parent="1">
          <mxGeometry x="80" y="220" width="120" height="60" as="geometry" />
        </mxCell>
        <mxCell id="cRnX71DRwEm9QalAC-Hg-70" value="" style="edgeStyle=orthogonalEdgeStyle;rounded=0;orthogonalLoop=1;jettySize=auto;html=1;" edge="1" parent="1" source="cRnX71DRwEm9QalAC-Hg-67" target="cRnX71DRwEm9QalAC-Hg-69">
          <mxGeometry relative="1" as="geometry" />
        </mxCell>
        <mxCell id="cRnX71DRwEm9QalAC-Hg-79" value="Não" style="edgeLabel;html=1;align=center;verticalAlign=middle;resizable=0;points=[];" vertex="1" connectable="0" parent="cRnX71DRwEm9QalAC-Hg-70">
          <mxGeometry x="-0.12" relative="1" as="geometry">
            <mxPoint as="offset" />
          </mxGeometry>
        </mxCell>
        <mxCell id="cRnX71DRwEm9QalAC-Hg-87" value="" style="edgeStyle=orthogonalEdgeStyle;rounded=0;orthogonalLoop=1;jettySize=auto;html=1;" edge="1" parent="1" source="cRnX71DRwEm9QalAC-Hg-67" target="cRnX71DRwEm9QalAC-Hg-86">
          <mxGeometry relative="1" as="geometry" />
        </mxCell>
        <mxCell id="cRnX71DRwEm9QalAC-Hg-67" value="Atualizar" style="rhombus;whiteSpace=wrap;html=1;" vertex="1" parent="1">
          <mxGeometry x="100" y="350" width="80" height="80" as="geometry" />
        </mxCell>
        <mxCell id="cRnX71DRwEm9QalAC-Hg-76" value="Não" style="edgeStyle=orthogonalEdgeStyle;rounded=0;orthogonalLoop=1;jettySize=auto;html=1;entryX=0.5;entryY=1;entryDx=0;entryDy=0;" edge="1" parent="1" source="cRnX71DRwEm9QalAC-Hg-69" target="cRnX71DRwEm9QalAC-Hg-71">
          <mxGeometry relative="1" as="geometry" />
        </mxCell>
        <mxCell id="cRnX71DRwEm9QalAC-Hg-97" value="" style="edgeStyle=orthogonalEdgeStyle;rounded=0;orthogonalLoop=1;jettySize=auto;html=1;" edge="1" parent="1" source="cRnX71DRwEm9QalAC-Hg-69" target="cRnX71DRwEm9QalAC-Hg-96">
          <mxGeometry relative="1" as="geometry" />
        </mxCell>
        <mxCell id="cRnX71DRwEm9QalAC-Hg-69" value="Apagar" style="rhombus;whiteSpace=wrap;html=1;" vertex="1" parent="1">
          <mxGeometry x="100" y="505" width="80" height="80" as="geometry" />
        </mxCell>
        <mxCell id="cRnX71DRwEm9QalAC-Hg-71" value="Fim" style="ellipse;whiteSpace=wrap;html=1;" vertex="1" parent="1">
          <mxGeometry x="-110" y="210" width="120" height="80" as="geometry" />
        </mxCell>
        <mxCell id="cRnX71DRwEm9QalAC-Hg-88" style="edgeStyle=orthogonalEdgeStyle;rounded=0;orthogonalLoop=1;jettySize=auto;html=1;" edge="1" parent="1" source="cRnX71DRwEm9QalAC-Hg-86" target="cRnX71DRwEm9QalAC-Hg-18">
          <mxGeometry relative="1" as="geometry">
            <Array as="points">
              <mxPoint x="300" y="180" />
              <mxPoint x="430" y="180" />
            </Array>
          </mxGeometry>
        </mxCell>
        <mxCell id="cRnX71DRwEm9QalAC-Hg-89" value="Não" style="edgeLabel;html=1;align=center;verticalAlign=middle;resizable=0;points=[];" vertex="1" connectable="0" parent="cRnX71DRwEm9QalAC-Hg-88">
          <mxGeometry x="-0.3824" relative="1" as="geometry">
            <mxPoint as="offset" />
          </mxGeometry>
        </mxCell>
        <mxCell id="cRnX71DRwEm9QalAC-Hg-91" value="" style="edgeStyle=orthogonalEdgeStyle;rounded=0;orthogonalLoop=1;jettySize=auto;html=1;" edge="1" parent="1" source="cRnX71DRwEm9QalAC-Hg-86" target="cRnX71DRwEm9QalAC-Hg-90">
          <mxGeometry relative="1" as="geometry" />
        </mxCell>
        <mxCell id="cRnX71DRwEm9QalAC-Hg-86" value="Dados válidios?" style="rhombus;whiteSpace=wrap;html=1;" vertex="1" parent="1">
          <mxGeometry x="260" y="350" width="80" height="80" as="geometry" />
        </mxCell>
        <mxCell id="cRnX71DRwEm9QalAC-Hg-90" value="Cadastro Atualizado" style="whiteSpace=wrap;html=1;" vertex="1" parent="1">
          <mxGeometry x="400" y="360" width="120" height="60" as="geometry" />
        </mxCell>
        <mxCell id="cRnX71DRwEm9QalAC-Hg-95" style="edgeStyle=orthogonalEdgeStyle;rounded=0;orthogonalLoop=1;jettySize=auto;html=1;entryX=0.325;entryY=1.025;entryDx=0;entryDy=0;entryPerimeter=0;" edge="1" parent="1" source="cRnX71DRwEm9QalAC-Hg-90" target="cRnX71DRwEm9QalAC-Hg-71">
          <mxGeometry relative="1" as="geometry">
            <Array as="points">
              <mxPoint x="460" y="640" />
              <mxPoint x="-71" y="640" />
            </Array>
          </mxGeometry>
        </mxCell>
        <mxCell id="cRnX71DRwEm9QalAC-Hg-96" value="Apagar Cliente" style="whiteSpace=wrap;html=1;" vertex="1" parent="1">
          <mxGeometry x="240" y="515" width="120" height="60" as="geometry" />
        </mxCell>
        <mxCell id="cRnX71DRwEm9QalAC-Hg-98" style="edgeStyle=orthogonalEdgeStyle;rounded=0;orthogonalLoop=1;jettySize=auto;html=1;entryX=0.733;entryY=1.063;entryDx=0;entryDy=0;entryPerimeter=0;" edge="1" parent="1" source="cRnX71DRwEm9QalAC-Hg-96" target="cRnX71DRwEm9QalAC-Hg-71">
          <mxGeometry relative="1" as="geometry">
            <Array as="points">
              <mxPoint x="300" y="700" />
              <mxPoint x="-22" y="700" />
            </Array>
          </mxGeometry>
        </mxCell>
      </root>
    </mxGraphModel>
  </diagram>
</mxfile>
